<svg width="1018.568310546875px" height="385.76002197265626px" xmlns="http://www.w3.org/2000/svg" viewBox="-259.2841552734375 -117.88001098632813 1018.568310546875 385.76002197265626" style="background: none;" preserveAspectRatio="xMidYMid"><defs><filter id="editing-hole" x="-100%" y="-100%" width="300%" height="300%"><feFlood flood-color="none" result="black"></feFlood><feMorphology operator="dilate" radius="2" in="SourceGraphic" result="erode"></feMorphology><feGaussianBlur in="erode" stdDeviation="4" result="blur"></feGaussianBlur><feOffset in="blur" dx="2" dy="2" result="offset"></feOffset><feComposite operator="atop" in="offset" in2="black" result="merge"></feComposite><feComposite operator="in" in="merge" in2="SourceGraphic" result="inner-shadow"></feComposite></filter></defs><g filter="url(#editing-hole)"><g transform="translate(-118.1789231300354, 143.80001068115234)"><path d="M103.40 0L52.20 0L3.40-137.60L50.60-137.60L78.20-45.60L79-45.60L106.80-137.60L152-137.60L103.40 0ZM216.60 0L172.40 0L172.40-137.60L216.60-137.60L216.60 0ZM248.20 0L248.20-137.60L359.40-137.60L359.40-104.60L292.40-104.60L292.40-81L350.00-81L350.00-49.40L292.40-49.40L292.40 0L248.20 0ZM381.60 0L381.60-137.60L425.80-137.60L425.80-35.20L496.40-35.20L496.40 0L381.60 0ZM561.20 0L517 0L517-137.60L561.20-137.60L561.20 0ZM684.40-72.60L733.60 0L680 0L654.60-42.80L653.80-42.80L628.40 0L578.80 0L628-72.80L583.60-137.60L637-137.60L657.80-102.40L658.60-102.40L679.60-137.60L729-137.60L684.40-72.60Z" fill="#ff0000"></path></g></g><style>text {
  font-size: 64px;
  font-family: Arial Black;
  dominant-baseline: central;
  text-anchor: middle;
}</style></svg>