<svg width="232.98494873046874px" height="349.2799926757812px" xmlns="http://www.w3.org/2000/svg" viewBox="133.5075256347656 -99.63999633789061 232.98494873046874 349.2799926757812" style="background: none;" preserveAspectRatio="xMidYMid"><defs><filter id="editing-hole" x="-100%" y="-100%" width="300%" height="300%"><feFlood flood-color="none" result="black"></feFlood><feMorphology operator="dilate" radius="2" in="SourceGraphic" result="erode"></feMorphology><feGaussianBlur in="erode" stdDeviation="4" result="blur"></feGaussianBlur><feOffset in="blur" dx="2" dy="2" result="offset"></feOffset><feComposite operator="atop" in="offset" in2="black" result="merge"></feComposite><feComposite operator="in" in="merge" in2="SourceGraphic" result="inner-shadow"></feComposite></filter></defs><g filter="url(#editing-hole)"><g transform="translate(171.7000274658203, 148.8000144958496)"><path d="M141.80-144.40L141.80-144.40L141.80-144.40Q153.60-138.60 153.60-131.60L153.60-131.60L153.60-131.60Q153.60-128.40 150.60-122L150.60-122L95.40-10L95.40-10Q93.20-5.60 88.70-2.90L88.70-2.90L88.70-2.90Q84.20-0.20 79.40-0.20L79.40-0.20L77.40-0.20L77.40-0.20Q72.40-0.20 67.90-2.90L67.90-2.90L67.90-2.90Q63.40-5.60 61.20-10L61.20-10L6-122L6-122Q3-128.40 3-131.60L3-131.60L3-131.60Q3-138.60 14.80-144.40L14.80-144.40L14.80-144.40Q21.40-147.80 24.90-147.80L24.90-147.80L24.90-147.80Q28.40-147.80 30.20-147L30.20-147L30.20-147Q32-146.20 33.60-144.20L33.60-144.20L33.60-144.20Q35.40-141.80 36.90-138.90L36.90-138.90L36.90-138.90Q38.40-136 44.60-122.30L44.60-122.30L44.60-122.30Q50.80-108.60 57.90-93.20L57.90-93.20L57.90-93.20Q65-77.80 71.30-64.10L71.30-64.10L71.30-64.10Q77.60-50.40 78.40-48.80L78.40-48.80L118.40-136.40L118.40-136.40Q120-140.20 121.20-142.40L121.20-142.40L121.20-142.40Q124.80-147.80 130-147.80L130-147.80L130-147.80Q135.20-147.80 141.80-144.40Z" fill="#ff0000"></path></g></g><style>text {
  font-size: 64px;
  font-family: Arial Black;
  dominant-baseline: central;
  text-anchor: middle;
}</style></svg>